<svg width="0" height="0" class="hidden">
  <symbol xmlns="http://www.w3.org/2000/svg" viewBox="0 0 15 7" id="arrow">
    <path fill-rule="evenodd" clip-rule="evenodd" d="M0 3v1h11v3l4-3.5L11 0v3H0z"></path>
  </symbol>
  <symbol xmlns="http://www.w3.org/2000/svg" viewBox="0 0 15 14" id="comment">
    <path fill-rule="evenodd" clip-rule="evenodd" d="M11.135 11v3L8.36 11H2.25a1.5 1.5 0 01-1.5-1.5V2A1.5 1.5 0 012.25.5h10.5a1.5 1.5 0 011.5 1.5v7.5a1.5 1.5 0 01-1.5 1.5h-1.615z"></path>
  </symbol>
  <symbol xmlns="http://www.w3.org/2000/svg" viewBox="0 0 17 17" id="download">
    <path fill-rule="evenodd" clip-rule="evenodd" d="M16 12.426c0-.237.263-.426.5-.426s.5.189.5.426v4.134a.44.44 0 01-.432.44H.426A.435.435 0 010 16.56v-4.134C0 12.19.263 12 .5 12s.5.189.5.426V16h15v-3.574zM9 0v10h3l-3.5 4L5 10h3V0h1z" ></path>
  </symbol>
  <symbol xmlns="http://www.w3.org/2000/svg" viewBox="0 0 10 18" id="facebook">
    <path fill-rule="evenodd" clip-rule="evenodd" d="M9.623.004L7.225 0C4.53 0 2.789 1.739 2.789 4.43v2.042H.377A.372.372 0 000 6.84V9.8c0 .203.169.367.377.367H2.79v7.467c0 .203.169.367.377.367h3.146a.372.372 0 00.378-.367v-7.467h2.82a.372.372 0 00.376-.367l.002-2.96c0-.097-.04-.19-.11-.26a.383.383 0 00-.268-.107H6.69V4.741c0-.832.203-1.255 1.317-1.255h1.616A.372.372 0 0010 3.119V.37a.372.372 0 00-.377-.367z" ></path>
  </symbol>
  <!-- <symbol xmlns="http://www.w3.org/2000/svg" viewBox="0 0 56 72" id="file">
    <path fill-rule="evenodd" clip-rule="evenodd" d="M40 0l16 16v52a4 4 0 01-4 4H4a4 4 0 01-4-4V4a4 4 0 014-4h36zm-4 20V4H4v64h48V20H36z" fill="#96E2E3"></path>
  </symbol> -->
  <symbol xmlns="http://www.w3.org/2000/svg" viewBox="0 0 13 13" id="heart">
    <path fill-rule="evenodd" clip-rule="evenodd" d="M11.84 1.96C11.17 1.212 10.28.8 9.334.8c-.947 0-1.74.412-2.41 1.16l-.425.68-.425-.68C5.406 1.212 4.612.8 3.665.8c-.945 0-1.835.412-2.504 1.16-1.381 1.546-1.381 4.06 0 5.604l4.949 4.757a.523.523 0 00.393.179c.14 0 .28-.06.387-.18l4.95-4.756c1.38-1.544 1.38-4.058 0-5.604z"></path>
  </symbol>
  <symbol xmlns="http://www.w3.org/2000/svg" viewBox="0 0 19 16" id="images">
    <path fill-rule="evenodd" clip-rule="evenodd" d="M3 3.5v-2a1 1 0 011-1h14a1 1 0 011 1v10a1 1 0 01-1 1h-2v2a1 1 0 01-1 1H1a1 1 0 01-1-1v-10a1 1 0 011-1h2zm12 9H4a1 1 0 01-1-1v-7H1v10h14v-2zM4 1.5v10h14v-10H4zm14 10H4v-1l3-3 3 2 4-4 4 5v1zm-8.5-5a1.5 1.5 0 110-3 1.5 1.5 0 010 3z"></path>
  </symbol>
  <symbol xmlns="http://www.w3.org/2000/svg" viewBox="0 0 18 16" id="twitter">
    <path fill-rule="evenodd" clip-rule="evenodd" d="M17.979 2.363a.088.088 0 00-.105-.025 7.151 7.151 0 01-1.687.517A3.777 3.777 0 0017.504.988a.09.09 0 00-.03-.098.089.089 0 00-.101-.008 7.177 7.177 0 01-2.245.875A3.745 3.745 0 0012.428.6c-2.066 0-3.746 1.696-3.746 3.78 0 .253.024.503.072.745A10.298 10.298 0 011.4 1.31a.09.09 0 00-.147.012 3.806 3.806 0 00-.507 1.9 3.79 3.79 0 001.41 2.958 3.557 3.557 0 01-1.307-.426.088.088 0 00-.088 0 .09.09 0 00-.045.077v.048A3.79 3.79 0 003.349 9.49a3.57 3.57 0 01-1.245-.018.09.09 0 00-.102.116A3.752 3.752 0 005.253 12.2a7.155 7.155 0 01-4.292 1.412c-.287 0-.577-.017-.861-.051a.09.09 0 00-.095.059.09.09 0 00.036.106A10.38 10.38 0 005.694 15.4c6.568 0 10.492-5.385 10.492-10.591 0-.145-.002-.29-.008-.433a7.51 7.51 0 001.807-1.905.091.091 0 00-.006-.108z"></path>
  </symbol>
  <symbol xmlns="http://www.w3.org/2000/svg" viewBox="0 0 18 18" id="search">
    <path fill-rule="evenodd" clip-rule="evenodd" d="M17.435 16.395l-4.289-4.455a7.238 7.238 0 001.707-4.673C14.853 3.26 11.59 0 7.577 0S.3 3.26.3 7.267c0 4.008 3.264 7.268 7.277 7.268a7.206 7.206 0 004.168-1.315l4.322 4.49c.181.187.424.29.684.29a.948.948 0 00.684-1.605zm-9.858-14.5a5.381 5.381 0 015.378 5.372 5.381 5.381 0 01-5.378 5.372 5.381 5.381 0 01-5.379-5.372 5.381 5.381 0 015.379-5.371z" fill="#BCBFC2"></path>
  </symbol>
  <symbol xmlns="http://www.w3.org/2000/svg" viewBox="0 0 510 510" id="instagram">
    <path d="M459 0H51C22.95 0 0 22.95 0 51v408c0 28.05 22.95 51 51 51h408c28.05 0 51-22.95 51-51V51c0-28.05-22.95-51-51-51zM255 153c56.1 0 102 45.9 102 102s-45.9 102-102 102-102-45.9-102-102 45.9-102 102-102zM63.75 459C56.1 459 51 453.9 51 446.25V229.5h53.55C102 237.15 102 247.35 102 255c0 84.15 68.85 153 153 153s153-68.85 153-153c0-7.65 0-17.85-2.55-25.5H459v216.75c0 7.65-5.1 12.75-12.75 12.75H63.75zM459 114.75c0 7.65-5.1 12.75-12.75 12.75h-51c-7.65 0-12.75-5.1-12.75-12.75v-51c0-7.65 5.1-12.75 12.75-12.75h51C453.9 51 459 56.1 459 63.75v51z" data-original="#000000" xmlns="http://www.w3.org/2000/svg"></path>
  </symbol>
  <symbol xmlns="http://www.w3.org/2000/svg" viewBox="0 0 18 16" id="youtube">
    <path fill-rule="evenodd" clip-rule="evenodd" d="M9 .8c-2.898 0-6.66.73-6.66.73l-.009.01A2.77 2.77 0 000 4.277v7.445a2.778 2.778 0 002.338 2.743l.003.004S6.102 15.2 9 15.2c2.898 0 6.66-.73 6.66-.73A2.78 2.78 0 0018 11.722V4.277a2.778 2.778 0 00-2.338-2.744C15.66 1.53 11.898.8 9 .8zM7.2 4.85L12.6 8l-5.4 3.15v-6.3z"></path>
  </symbol>
  <symbol xmlns="http://www.w3.org/2000/svg" viewBox="0 0 18 17" id="home">
    <path fill-rule="evenodd" clip-rule="evenodd" d="M2 17h5v-6h4v6h5v-7h2L9 0 0 10h2v7z" fill="#fff"></path>
  </symbol>
  <symbol xmlns="http://www.w3.org/2000/svg" viewBox="0 0 14 18" id="bookmark">
    <path fill-rule="evenodd" clip-rule="evenodd" d="M2 0h10a2 2 0 012 2v16l-6.905-5L0 18V2a2 2 0 012-2z"></path>
  </symbol>
  <symbol xmlns="http://www.w3.org/2000/svg" viewBox="0 0 15 15" id="clock">
    <path fill-rule="evenodd" clip-rule="evenodd" d="M7.5 14.25a6.75 6.75 0 110-13.5 6.75 6.75 0 010 13.5zm.75-6.75v-3a.75.75 0 00-1.5 0v3.75c0 .414.336.75.75.75h2.25a.75.75 0 000-1.5h-1.5z"></path>
  </symbol>
  <symbol xmlns="http://www.w3.org/2000/svg" viewBox="0 0 15 11" id="views">
    <path fill-rule="evenodd" clip-rule="evenodd" d="M15 5.262s-3 5.113-7.5 5.113S0 5.262 0 5.262 3 .625 7.5.625 15 5.262 15 5.262zM7.5 2.875a2.629 2.629 0 012.625 2.626A2.626 2.626 0 117.5 2.875zm-.001 3.938c.724 0 1.31-.591 1.31-1.316 0-.726-.587-1.317-1.31-1.317-.724 0-1.311.59-1.311 1.316 0 .726.587 1.317 1.31 1.317z"></path>
  </symbol>
  <symbol xmlns="http://www.w3.org/2000/svg" viewBox="0 0 18 18" id="pencil">
    <path fill-rule="evenodd" clip-rule="evenodd" d="M0 14.2V18h3.8l11-11.1L11 3.1 0 14.2zM17.7 4c.4-.4.4-1 0-1.4L15.4.3c-.4-.4-1-.4-1.4 0l-1.8 1.8L16 5.9 17.7 4z" ></path>
  </symbol>
</svg>